<svg width="52" height="51" viewBox="0 0 52 51" fill="none" xmlns="http://www.w3.org/2000/svg">
<path d="M44.5722 27.752C43.1387 28.1328 41.6618 28.3255 40.1787 28.3253C35.6624 28.3253 31.4212 26.5695 28.2355 23.3838C26.1435 21.2797 24.6396 18.664 23.8735 15.7975C23.1075 12.9311 23.1061 9.91384 23.8695 7.04664C23.9648 6.68815 23.9642 6.31089 23.8677 5.95271C23.7712 5.59453 23.5822 5.26802 23.3197 5.00593C23.0572 4.74385 22.7304 4.5554 22.3721 4.45949C22.0137 4.36359 21.6365 4.3636 21.2782 4.45952C17.6888 5.41607 14.414 7.29969 11.7824 9.92145C3.53687 18.1672 3.53687 31.5893 11.7824 39.8393C13.7424 41.8102 16.0737 43.3728 18.6415 44.4367C21.2093 45.5006 23.9626 46.0447 26.7421 46.0374C29.5208 46.0452 32.2735 45.5016 34.8406 44.438C37.4078 43.3745 39.7384 41.8121 41.6975 39.8414C44.3211 37.2093 46.2056 33.9327 47.1614 30.3413C47.2563 29.9829 47.2556 29.6059 47.1591 29.248C47.0627 28.8901 46.874 28.5637 46.6118 28.3016C46.3497 28.0395 46.0234 27.8507 45.6655 27.7543C45.3075 27.6579 44.9306 27.6571 44.5722 27.752ZM38.7085 36.8503C37.141 38.4265 35.2764 39.6761 33.2228 40.5268C31.1691 41.3776 28.9671 41.8126 26.7442 41.8066C24.5205 41.8122 22.3179 41.3768 20.2635 40.5257C18.2092 39.6746 16.3439 38.4247 14.7756 36.8482C8.18003 30.2503 8.18003 19.5126 14.7756 12.9147C16.0501 11.6416 17.5215 10.5823 19.1332 9.7776C18.8973 12.8218 19.3214 15.881 20.3765 18.7462C21.4315 21.6114 23.0927 24.215 25.2465 26.3791C27.4059 28.5397 30.0087 30.2056 32.875 31.2615C35.7413 32.3174 38.8028 32.7382 41.8477 32.4947C41.0386 34.1037 39.979 35.5739 38.7085 36.8503Z" fill="#F1C40F"/>
</svg>
