<svg width="52" height="51" viewBox="0 0 52 51" fill="none" xmlns="http://www.w3.org/2000/svg">
<path d="M15.0478 25.5415C15.0478 31.3821 19.7989 36.1332 25.6395 36.1332C31.4801 36.1332 36.2313 31.3821 36.2313 25.5415C36.2313 19.7009 31.4801 14.9497 25.6395 14.9497C19.7989 14.9497 15.0478 19.7009 15.0478 25.5415ZM25.6395 19.1805C29.1468 19.1805 32.0005 22.0342 32.0005 25.5415C32.0005 29.0488 29.1468 31.9024 25.6395 31.9024C22.1322 31.9024 19.2786 29.0488 19.2786 25.5415C19.2786 22.0342 22.1322 19.1805 25.6395 19.1805ZM23.5199 40.3492H27.7507V46.6953H23.5199V40.3492ZM23.5199 4.38763H27.7507V10.7338H23.5199V4.38763ZM4.48145 23.4261H10.8276V27.6569H4.48145V23.4261ZM40.443 23.4261H46.7891V27.6569H40.443V23.4261ZM9.17971 39.0017L13.6643 34.5128L16.6576 37.504L12.173 41.9928L9.17971 39.0017ZM34.6088 13.5769L39.0976 9.08802L42.0888 12.0792L37.5999 16.568L34.6088 13.5769ZM13.6707 16.5701L9.18183 12.0813L12.1751 9.09013L16.6597 13.579L13.6707 16.5701ZM42.0888 39.0038L39.0976 41.9949L34.6088 37.5061L37.5999 34.5149L42.0888 39.0038Z" fill="white"/>
</svg>
